<svg width="24" height="24" viewBox="0 0 24 24" fill="none" xmlns="http://www.w3.org/2000/svg">
<g clip-path="url(#clip0_592_98)">
<path d="M4.5 3.25C4.16848 3.25 3.85054 3.3817 3.61612 3.61612C3.3817 3.85054 3.25 4.16848 3.25 4.5V14.5C3.25 14.8315 3.3817 15.1495 3.61612 15.3839C3.85054 15.6183 4.16848 15.75 4.5 15.75H16.4825C17.1455 15.7501 17.7813 16.0136 18.25 16.4825L20.75 18.9825V4.5C20.75 4.16848 20.6183 3.85054 20.3839 3.61612C20.1495 3.3817 19.8315 3.25 19.5 3.25H4.5ZM19.5 2C20.163 2 20.7989 2.26339 21.2678 2.73223C21.7366 3.20107 22 3.83696 22 4.5V20.4913C22 20.6149 21.9633 20.7358 21.8945 20.8386C21.8257 20.9414 21.728 21.0215 21.6138 21.0687C21.4995 21.116 21.3737 21.1282 21.2525 21.104C21.1312 21.0797 21.0198 21.0201 20.9325 20.9325L17.3663 17.3663C17.1319 17.1318 16.814 17.0001 16.4825 17H4.5C3.83696 17 3.20107 16.7366 2.73223 16.2678C2.26339 15.7989 2 15.163 2 14.5V4.5C2 3.83696 2.26339 3.20107 2.73223 2.73223C3.20107 2.26339 3.83696 2 4.5 2H19.5Z" fill="white"/>
<path d="M8.25 9.5C8.25 9.83152 8.1183 10.1495 7.88388 10.3839C7.64946 10.6183 7.33152 10.75 7 10.75C6.66848 10.75 6.35054 10.6183 6.11612 10.3839C5.8817 10.1495 5.75 9.83152 5.75 9.5C5.75 9.16848 5.8817 8.85054 6.11612 8.61612C6.35054 8.3817 6.66848 8.25 7 8.25C7.33152 8.25 7.64946 8.3817 7.88388 8.61612C8.1183 8.85054 8.25 9.16848 8.25 9.5ZM13.25 9.5C13.25 9.83152 13.1183 10.1495 12.8839 10.3839C12.6495 10.6183 12.3315 10.75 12 10.75C11.6685 10.75 11.3505 10.6183 11.1161 10.3839C10.8817 10.1495 10.75 9.83152 10.75 9.5C10.75 9.16848 10.8817 8.85054 11.1161 8.61612C11.3505 8.3817 11.6685 8.25 12 8.25C12.3315 8.25 12.6495 8.3817 12.8839 8.61612C13.1183 8.85054 13.25 9.16848 13.25 9.5ZM18.25 9.5C18.25 9.83152 18.1183 10.1495 17.8839 10.3839C17.6495 10.6183 17.3315 10.75 17 10.75C16.6685 10.75 16.3505 10.6183 16.1161 10.3839C15.8817 10.1495 15.75 9.83152 15.75 9.5C15.75 9.16848 15.8817 8.85054 16.1161 8.61612C16.3505 8.3817 16.6685 8.25 17 8.25C17.3315 8.25 17.6495 8.3817 17.8839 8.61612C18.1183 8.85054 18.25 9.16848 18.25 9.5Z" fill="white"/>
</g>
<defs>
<clipPath id="clip0_592_98">
<rect width="20" height="20" fill="white" transform="translate(2 2)"/>
</clipPath>
</defs>
</svg>
