<svg width="1008" height="275" viewBox="0 0 1008 275" fill="none" xmlns="http://www.w3.org/2000/svg">
<path d="M117.1 121.56H42.8799V37.8001C42.8799 25.9801 33.26 16.3601 21.44 16.3601C9.62 16.3601 0 25.9801 0 37.8001V143C0 154.82 9.62 164.44 21.44 164.44H117.1C128.92 164.44 138.54 154.82 138.54 143C138.54 131.18 128.92 121.56 117.1 121.56Z" fill="white"/>
<path d="M117.1 16.3601H21.44C9.62 16.3601 0 25.9801 0 37.8001C0 49.6201 9.62 59.2401 21.44 59.2401H117.1C128.92 59.2401 138.54 49.6201 138.54 37.8001C138.54 25.9801 128.92 16.3601 117.1 16.3601Z" fill="white"/>
<path d="M221.04 70.51H177.73C165.91 70.51 156.29 80.13 156.29 91.95C156.29 103.77 165.91 113.39 177.73 113.39H221.04C232.86 113.39 242.48 103.77 242.48 91.95C242.48 80.13 232.86 70.51 221.04 70.51Z" fill="white"/>
<path d="M177.73 0C165.91 0 156.29 9.62 156.29 21.44V167.35C156.29 179.17 165.91 188.79 177.73 188.79C189.55 188.79 199.17 179.17 199.17 167.35V21.44C199.17 9.62 189.55 0 177.73 0Z" fill="white"/>
<path d="M184.89 228.1H25.67C13.85 228.1 4.22998 237.72 4.22998 249.54C4.22998 261.36 13.85 270.98 25.67 270.98H184.89C196.71 270.98 206.33 261.36 206.33 249.54C206.33 237.72 196.71 228.1 184.89 228.1Z" fill="white"/>
<path d="M25.67 180.94C13.85 180.94 4.22998 190.56 4.22998 202.38V249.54C4.22998 261.36 13.85 270.98 25.67 270.98C37.49 270.98 47.11 261.36 47.11 249.54V202.38C47.11 190.56 37.49 180.94 25.67 180.94Z" fill="white"/>
<path d="M324.99 9.62012C313.17 9.62012 303.55 19.2401 303.55 31.0601V98.0201C303.55 109.84 313.17 119.46 324.99 119.46C336.81 119.46 346.43 109.84 346.43 98.0201V31.0601C346.43 19.2401 336.81 9.62012 324.99 9.62012Z" fill="white"/>
<path d="M443.58 76.5901H289.38C277.56 76.5901 267.94 86.2101 267.94 98.0301C267.94 109.85 277.56 119.47 289.38 119.47H443.58C455.4 119.47 465.02 109.85 465.02 98.0301C465.02 86.2101 455.4 76.5901 443.58 76.5901Z" fill="white"/>
<path d="M413.11 9.62012C401.29 9.62012 391.67 19.2401 391.67 31.0601V98.0201C391.67 109.84 401.29 119.46 413.11 119.46C424.93 119.46 434.55 109.84 434.55 98.0201V31.0601C434.55 19.2401 424.93 9.62012 413.11 9.62012Z" fill="white"/>
<path d="M443.58 9.62012H289.38C277.56 9.62012 267.94 19.2401 267.94 31.0601C267.94 42.8801 277.56 52.5001 289.38 52.5001H443.58C455.4 52.5001 465.02 42.8801 465.02 31.0601C465.02 19.2401 455.4 9.62012 443.58 9.62012Z" fill="white"/>
<path d="M534.38 16.3601C522.56 16.3601 512.94 25.9801 512.94 37.8001V205.52C512.94 217.34 522.56 226.96 534.38 226.96C546.2 226.96 555.82 217.34 555.82 205.52V37.8001C555.82 25.9801 546.2 16.3601 534.38 16.3601Z" fill="white"/>
<path d="M622.76 89.76H534.38C522.56 89.76 512.94 99.38 512.94 111.2C512.94 123.02 522.56 132.64 534.38 132.64H622.76C634.58 132.64 644.2 123.02 644.2 111.2C644.2 99.38 634.58 89.76 622.76 89.76Z" fill="white"/>
<path d="M622.76 16.3601C610.94 16.3601 601.32 25.9801 601.32 37.8001V205.52C601.32 217.34 610.94 226.96 622.76 226.96C634.58 226.96 644.2 217.34 644.2 205.52V37.8001C644.2 25.9801 634.58 16.3601 622.76 16.3601Z" fill="white"/>
<path d="M694.06 0C682.24 0 672.62 9.62 672.62 21.44V251.71C672.62 263.53 682.24 273.15 694.06 273.15C705.88 273.15 715.5 263.53 715.5 251.71V21.44C715.5 9.62 705.88 0 694.06 0Z" fill="white"/>
<path d="M735.24 112.27H694.06C682.24 112.27 672.62 121.89 672.62 133.71C672.62 145.53 682.24 155.15 694.06 155.15H735.24C747.06 155.15 756.68 145.53 756.68 133.71C756.68 121.89 747.06 112.27 735.24 112.27Z" fill="white"/>
<path d="M875.84 111.93H786.46C774.64 111.93 765.02 121.55 765.02 133.37C765.02 145.19 774.64 154.81 786.46 154.81H875.84C887.66 154.81 897.28 145.19 897.28 133.37C897.28 121.55 887.66 111.93 875.84 111.93Z" fill="white"/>
<path d="M875.84 58.2H786.46C774.64 58.2 765.02 67.82 765.02 79.64C765.02 91.46 774.64 101.08 786.46 101.08H875.84C887.66 101.08 897.28 91.46 897.28 79.64C897.28 67.82 887.66 58.2 875.84 58.2Z" fill="white"/>
<path d="M786.46 58.2C774.64 58.2 765.02 67.82 765.02 79.64V133.37C765.02 145.19 774.64 154.81 786.46 154.81C798.28 154.81 807.9 145.19 807.9 133.37V79.64C807.9 67.82 798.28 58.2 786.46 58.2Z" fill="white"/>
<path d="M875.84 9.62012C864.02 9.62012 854.4 19.2401 854.4 31.0601V79.6401C854.4 91.4601 864.02 101.08 875.84 101.08C887.66 101.08 897.28 91.4601 897.28 79.6401V31.0601C897.28 19.2401 887.66 9.62012 875.84 9.62012Z" fill="white"/>
<path d="M622.76 184.08H534.38C522.56 184.08 512.94 193.7 512.94 205.52C512.94 217.34 522.56 226.96 534.38 226.96H622.76C634.58 226.96 644.2 217.34 644.2 205.52C644.2 193.7 634.58 184.08 622.76 184.08Z" fill="white"/>
<path d="M875.84 9.62012H786.46C774.64 9.62012 765.02 19.2401 765.02 31.0601C765.02 42.8801 774.64 52.5001 786.46 52.5001H875.84C887.66 52.5001 897.28 42.8801 897.28 31.0601C897.28 19.2401 887.66 9.62012 875.84 9.62012Z" fill="white"/>
<path d="M986.31 61.5901H950.16C938.34 61.5901 928.72 71.2101 928.72 83.0301C928.72 94.8501 938.34 104.47 950.16 104.47H986.31C998.13 104.47 1007.75 94.8501 1007.75 83.0301C1007.75 71.2101 998.13 61.5901 986.31 61.5901Z" fill="white"/>
<path d="M950.15 0C938.33 0 928.71 9.62 928.71 21.44V144.63C928.71 156.45 938.33 166.07 950.15 166.07C961.97 166.07 971.59 156.45 971.59 144.63V21.44C971.59 9.62 961.97 0 950.15 0Z" fill="white"/>
<path d="M790.72 171.31C778.9 171.31 769.28 180.93 769.28 192.75V252.38C769.28 264.2 778.9 273.82 790.72 273.82C802.54 273.82 812.16 264.2 812.16 252.38V192.75C812.16 180.93 802.54 171.31 790.72 171.31Z" fill="white"/>
<path d="M950.15 171.31H790.72C778.9 171.31 769.28 180.93 769.28 192.75C769.28 204.57 778.9 214.19 790.72 214.19H950.15C961.97 214.19 971.59 204.57 971.59 192.75C971.59 180.93 961.97 171.31 950.15 171.31Z" fill="white"/>
<path d="M950.15 171.31C938.33 171.31 928.71 180.93 928.71 192.75V252.38C928.71 264.2 938.33 273.82 950.15 273.82C961.97 273.82 971.59 264.2 971.59 252.38V192.75C971.59 180.93 961.97 171.31 950.15 171.31Z" fill="white"/>
<path d="M950.15 230.94H790.72C778.9 230.94 769.28 240.56 769.28 252.38C769.28 264.2 778.9 273.82 790.72 273.82H950.15C961.97 273.82 971.59 264.2 971.59 252.38C971.59 240.56 961.97 230.94 950.15 230.94Z" fill="white"/>
<path d="M426.04 176.12H310.55C283.34 176.12 261.2 198.26 261.2 225.47C261.2 237.29 270.82 246.91 282.64 246.91C294.46 246.91 304.08 237.29 304.08 225.47C304.08 221.9 306.98 219 310.55 219H426.04C429.61 219 432.51 221.9 432.51 225.47C432.51 229.04 429.61 231.94 426.04 231.94C414.22 231.94 404.6 241.56 404.6 253.38C404.6 265.2 414.22 274.82 426.04 274.82C453.25 274.82 475.39 252.68 475.39 225.47C475.39 198.26 453.25 176.12 426.04 176.12Z" fill="white"/>
<path d="M426.04 231.95H310.55C306.98 231.95 304.08 229.05 304.08 225.48C304.08 213.66 294.46 204.04 282.64 204.04C270.82 204.04 261.2 213.66 261.2 225.48C261.2 252.69 283.34 274.83 310.55 274.83H426.04C437.86 274.83 447.48 265.21 447.48 253.39C447.48 241.57 437.86 231.95 426.04 231.95Z" fill="white"/>
<path d="M368.48 126.3C356.66 126.3 347.04 135.92 347.04 147.74V177.06C347.04 188.88 356.66 198.5 368.48 198.5C380.3 198.5 389.92 188.88 389.92 177.06V147.74C389.92 135.92 380.3 126.3 368.48 126.3Z" fill="white"/>
<path d="M470.69 126.3H266.28C254.46 126.3 244.84 135.92 244.84 147.74C244.84 159.56 254.46 169.18 266.28 169.18H470.69C482.51 169.18 492.13 159.56 492.13 147.74C492.13 135.92 482.51 126.3 470.69 126.3Z" fill="white"/>
</svg>
