<svg width="534" height="591" viewBox="0 0 534 591" fill="none" xmlns="http://www.w3.org/2000/svg">
<path d="M277.737 412.22C274.147 411.08 270.417 410.51 266.677 410.51C250.627 410.51 236.597 420.79 231.757 436.1L197.917 543.03C191.817 562.29 202.537 582.92 221.797 589.02C225.387 590.16 229.107 590.73 232.857 590.73C248.907 590.73 262.937 580.45 267.777 565.14L301.617 458.21C307.717 438.95 296.997 418.32 277.737 412.22Z" fill="#FF6C66"/>
<path d="M417.187 438.21L273.467 411.14C271.217 410.72 268.927 410.5 266.657 410.5C249.067 410.5 233.937 423.06 230.677 440.36C226.937 460.21 240.047 479.41 259.897 483.15L403.617 510.22C405.867 510.64 408.157 510.86 410.427 510.86C428.017 510.86 443.147 498.3 446.407 481C450.147 461.15 437.037 441.95 417.187 438.21Z" fill="#FCD374"/>
<path d="M517.207 190.42C511.127 186.32 504.057 184.16 496.757 184.16C484.537 184.16 473.177 190.2 466.357 200.32L349.577 373.58C342.937 383.44 341.487 395.96 345.707 407.07L376.157 487.24C381.527 501.38 395.297 510.87 410.407 510.87C414.857 510.87 419.227 510.06 423.407 508.48C442.297 501.3 451.827 480.1 444.647 461.22L420.937 398.8L527.107 241.29C538.397 224.54 533.957 201.72 517.207 190.43V190.42Z" fill="#FF6C66"/>
<path d="M525.677 198.34C519.677 190.61 511.027 185.67 501.317 184.45L377.527 168.82L299.117 19.6C292.767 7.51 280.327 0 266.667 0C260.777 0 254.887 1.46 249.647 4.21C240.987 8.76 234.617 16.42 231.707 25.76C228.797 35.11 229.707 45.02 234.257 53.69L321.567 219.82C327.137 230.41 337.537 237.63 349.407 239.13L492.147 257.15C493.677 257.34 495.227 257.44 496.767 257.44C515.167 257.44 530.777 243.66 533.087 225.39C534.317 215.68 531.687 206.08 525.687 198.34H525.677Z" fill="#FCD374"/>
<path d="M301.667 25.76C298.757 16.42 292.387 8.76 283.727 4.21C278.487 1.46 272.597 0 266.707 0C253.037 0 240.607 7.51 234.257 19.6L146.947 185.74C137.547 203.62 144.457 225.82 162.337 235.22C167.577 237.97 173.467 239.43 179.357 239.43C193.027 239.43 205.457 231.92 211.807 219.83L299.117 53.7C303.667 45.04 304.577 35.12 301.667 25.77V25.76Z" fill="#FF6C66"/>
<path d="M131.164 509.269C150.531 503.404 161.476 482.949 155.61 463.582C149.745 444.215 129.29 433.27 109.923 439.136C90.5557 445.001 79.6108 465.456 85.4764 484.823C91.3421 504.19 111.797 515.135 131.164 509.269Z" fill="#FF8D66"/>
<path d="M183.797 373.58L99.3167 248.25L100.177 248.19C120.327 246.71 135.507 229.11 134.027 208.97C132.627 189.93 116.607 175.01 97.5467 175.01C96.6267 175.01 95.6967 175.04 94.7767 175.11L33.9367 179.58C13.9167 181.05 -1.21328 198.46 0.0767232 218.47C-0.433277 226.52 1.73672 234.57 6.25672 241.28L123.037 414.54C129.857 424.66 141.227 430.7 153.447 430.7C160.757 430.7 167.827 428.54 173.897 424.44C190.647 413.15 195.097 390.33 183.797 373.58Z" fill="#FCD374"/>
</svg>
