<svg width="146" height="23" viewBox="0 0 146 23" fill="none" xmlns="http://www.w3.org/2000/svg">
<path d="M17.472 15.792H15.648V0H17.472V5.28H20.424V6.912H17.472V15.792ZM18.168 21.168H1.944V14.112H3.768V19.584H18.168V21.168ZM0 0.744H11.28V2.328H1.824V9.984L14.208 9.48V11.04L0 11.712V0.744Z" fill="white"/>
<path d="M21.6081 9.84H42.6321V11.424H33.0561V13.224C36.6081 13.464 39.2721 15.168 39.2721 17.76C39.2721 20.568 36.2001 22.32 32.2161 22.32C28.2321 22.32 25.1601 20.568 25.1601 17.76C25.1601 15.216 27.7041 13.512 31.1841 13.248V11.424H21.6081V9.84ZM23.6961 0.383999H40.5201V1.92H37.7601L37.5921 6.504H41.1921V8.064H23.0241V6.504H26.6001L26.4321 1.92H23.6961V0.383999ZM32.2161 20.784C35.1441 20.784 37.4481 19.656 37.4481 17.76C37.4481 15.864 35.1441 14.736 32.2161 14.736C29.2881 14.736 26.9841 15.864 26.9841 17.76C26.9841 19.656 29.2881 20.784 32.2161 20.784ZM28.2561 1.92L28.4241 6.504H35.7681L35.9361 1.92H28.2561Z" fill="white"/>
<path d="M54.5201 0.672H56.3441V17.376H45.3281V0.672H47.1521V6.912H54.5201V0.672ZM47.1521 15.792H54.5201V8.496H47.1521V15.792ZM62.2961 21.408H60.4721V0H62.2961V7.92H65.7761V9.552H62.2961V21.408Z" fill="white"/>
<path d="M79.2722 6.768H69.8162V10.08L82.2002 9.624V11.136L67.9922 11.76V5.28H77.4482V2.088H67.9922V0.552H79.2722V6.768ZM85.4642 12.504H83.6402V0H85.4642V5.16H88.4162V6.792H85.4642V12.504ZM69.8162 13.704H85.4162V21.264H69.8162V13.704ZM71.6402 15.192V19.728H83.5922V15.192H71.6402Z" fill="white"/>
<path d="M99.4672 5.568L104.339 1.488H105.803V19.488H104.075V3.744L100.403 6.792L99.4672 5.568Z" fill="white"/>
<path d="M117.707 18.48C120.875 18.48 122.627 16.56 122.627 14.184C122.627 11.808 120.707 10.008 117.635 10.008C116.795 10.008 115.739 10.464 115.547 10.56L114.875 9.36L121.427 2.976H112.187V1.488H123.755V2.808L117.899 8.544C122.171 8.592 124.355 11.112 124.355 14.184C124.355 17.4 121.859 19.968 117.707 19.968C114.947 19.968 112.523 18.432 111.347 16.224L112.691 15.336C113.699 17.136 115.763 18.48 117.707 18.48Z" fill="white"/>
<path d="M145.012 21.408H143.188V0H145.012V21.408ZM127.42 2.496V0.912H138.604C138.7 8.808 134.14 14.856 127.948 18.144L126.748 16.8C132.7 13.896 136.396 8.232 136.636 2.496H127.42Z" fill="white"/>
</svg>
